# xmcd
# 
# Track frame offsets:
#     150
#     25377
#     71457
#     97372
#     116375
#     153910
#     184870
# 
# Disc length: 2968
# 
# Revision: 1
# Processed by: cddbd v1.5.2PL0 Copyright (c) Steve Scherf et al.
# Submitted via: BonkEnc v1.0.15
# 
DISCID=590b9607
DTITLE=WAVE - Wave II
DYEAR=0
DGENRE=Jazz
TTITLE0=Feisty Won
TTITLE1=Sync
TTITLE2=Boogie Woo
TTITLE3=No Noh
TTITLE4=SOng For Pedro
TTITLE5=Mach Bawp
TTITLE6=Future This
EXTD=
EXTT0=
EXTT1=
EXTT2=
EXTT3=
EXTT4=
EXTT5=
EXTT6=
PLAYORDER=
